<svg xmlns="http://www.w3.org/2000/svg" width="90.279" height="90.279" viewBox="0 0 90.279 90.279" enable-background="new 0 0 90.279 79.149"><g fill="none" stroke="#000" stroke-width="4" stroke-linecap="round" stroke-miterlimit="10"><path d="M19 70.538s-5.68-28.195 20-32c27-4 49-10 49-10s-7 70-69 42zM2 74.538s39-6 71-32M34 51.538s-3 8-1 14M51 45.538s-2 10-1 12M49 66.538s-5-1-8-4M68 53.538s-5-1-7-2"/><path d="M52 14.65c0-3.59-6.5-11.5-6.5-11.5S39 11.06 39 14.65s2.91 6.5 6.5 6.5 6.5-2.91 6.5-6.5z"/></g></svg>