<svg xmlns="http://www.w3.org/2000/svg" width="100" height="100" viewBox="-504.361 245.639 100 100" enable-background="new -504.361 245.639 100 100"><g><g fill="none" stroke="#000" stroke-width="4" stroke-linecap="round" stroke-miterlimit="10"><path d="M-480.36 320.028s-5.682-28.195 20-32c27-4 49-10 49-10s-7 70-69 42zM-497.36 324.028s39-6 71-32M-465.36 301.028s-3 8-1 14M-448.36 295.028s-2 10-1 12M-450.36 316.028s-5-1-8-4M-431.36 303.028s-5-1-7-2"/><path d="M-447.36 264.14c0-3.59-6.5-11.5-6.5-11.5s-6.5 7.91-6.5 11.5 2.91 6.5 6.5 6.5 6.5-2.91 6.5-6.5z"/></g></g></svg>