<svg xmlns="http://www.w3.org/2000/svg" width="49" height="57" viewBox="0 0 49 57"><g fill="#231F20"><path d="M0 0v57h49V0H0zm47 55H2V2h45v53zM16 21c3.31 0 6-2.69 6-6s-2.69-6-6-6-6 2.69-6 6 2.69 6 6 6zm0-10c2.206 0 4 1.794 4 4s-1.794 4-4 4-4-1.794-4-4 1.794-4 4-4zM33 21c3.31 0 6-2.69 6-6s-2.69-6-6-6-6 2.69-6 6 2.69 6 6 6zm0-10c2.206 0 4 1.794 4 4s-1.794 4-4 4-4-1.794-4-4 1.794-4 4-4zM16 38c3.31 0 6-2.69 6-6s-2.69-6-6-6-6 2.69-6 6 2.69 6 6 6zm0-10c2.206 0 4 1.794 4 4s-1.794 4-4 4-4-1.794-4-4 1.794-4 4-4zM33 38c3.31 0 6-2.69 6-6s-2.69-6-6-6-6 2.69-6 6 2.69 6 6 6zm0-10c2.206 0 4 1.794 4 4s-1.794 4-4 4-4-1.794-4-4 1.794-4 4-4z"/><circle cx="12.5" cy="48.5" r="2.5"/><circle cx="20.5" cy="48.5" r="2.5"/><circle cx="28.5" cy="48.5" r="2.5"/><circle cx="36.5" cy="48.5" r="2.5"/></g></svg>