<svg xmlns="http://www.w3.org/2000/svg" width="52" height="52" viewBox="0 0 52 52"><g fill="#001B1F"><path d="M38.025 16.803l-2.828-2.83c-1.17-1.17-3.076-1.17-4.244 0L17.323 27.6l-2.653 9.73 9.727-2.652 13.628-13.63c1.172-1.17 1.172-3.074 0-4.245zM33.78 15.39l2.83 2.83c.392.39.392 1.023 0 1.414l-1.413 1.415-4.244-4.246 1.414-1.415c.39-.392 1.024-.392 1.414 0zM17.523 34.48l1.59-5.837L29.538 18.22l4.244 4.244L23.36 32.887l-5.836 1.592zM22.464 30.953l-1.416-1.415 8.487-8.494 1.417 1.415zM44.393 7.606C34.25-2.536 17.75-2.536 7.606 7.606c-10.142 10.143-10.142 26.644 0 36.786 10.143 10.143 26.644 10.143 36.786 0s10.143-26.643 0-36.786zM9.02 42.98c-9.36-9.362-9.36-24.597 0-33.958 9.363-9.36 24.597-9.36 33.958 0s9.36 24.596 0 33.957-24.595 9.36-33.957 0z"/></g></svg>