<svg xmlns="http://www.w3.org/2000/svg" width="52" height="52" viewBox="0 0 52 52"><g fill="#C2C5C5"><path d="M38.02 16.808l-2.827-2.83c-1.17-1.168-3.073-1.168-4.242 0L17.328 27.603l-2.65 9.724 9.722-2.652L38.02 21.05c1.17-1.17 1.17-3.072 0-4.242zm-4.242-1.414l2.828 2.828c.39.39.39 1.024 0 1.415l-1.414 1.414-4.242-4.242 1.414-1.414c.39-.39 1.024-.39 1.414 0zm-16.252 19.08l1.59-5.833 10.42-10.418 4.242 4.243-10.42 10.418-5.832 1.592zM22.465 30.95l-1.415-1.415 8.484-8.49 1.415 1.415zM44.385 7.615c-10.138-10.138-26.632-10.138-36.77 0s-10.138 26.632 0 36.77 26.632 10.138 36.77 0 10.137-26.632 0-36.77zM9.03 42.97c-9.358-9.356-9.357-24.583 0-33.94 9.356-9.357 24.583-9.357 33.94 0 9.356 9.357 9.357 24.584 0 33.94-9.356 9.357-24.584 9.357-33.94 0z"/></g></svg>