<svg xmlns="http://www.w3.org/2000/svg" width="32" height="32" viewBox="0 0 32 32"><g fill="#C2C5C5"><path d="M23.637 10.908l-2.545-2.545c-.858-.857-2.254-.857-3.112 0L9.693 16.65 8.56 23.44l6.79-1.133 8.287-8.287c.857-.858.857-2.253 0-3.112zm-4.242-1.13c.077-.08.205-.08.282 0l2.546 2.545c.078.077.078.205 0 .282l-.565.566-2.83-2.828.567-.565zm-8.4 11.228l.564-3.394 5.853-5.854 2.828 2.828-5.853 5.854-3.393.566zM13.738 19.677l-1.415-1.415 5.09-5.09 1.415 1.415zM27.313 4.687c-6.238-6.238-16.39-6.238-22.627 0s-6.238 16.39 0 22.627 16.39 6.238 22.627 0 6.24-16.39 0-22.627zM6.1 25.9C.643 20.44.643 11.557 6.1 6.1 11.56.64 20.443.64 25.9 6.1c5.46 5.458 5.46 14.34 0 19.8-5.46 5.458-14.34 5.458-19.8 0z"/></g></svg>