<svg xmlns="http://www.w3.org/2000/svg" width="50" height="50" viewBox="0 0 50 50"><path fill="none" stroke="#FFE574" stroke-width="2" stroke-linecap="round" stroke-miterlimit="10" d="M24 13c0 1.104-.896 2-2 2h-8c-1.104 0-2-.896-2-2V8c0-1.104.896-2 2-2h8c1.104 0 2 .896 2 2v5zM39 13c0 1.104-.896 2-2 2h-8c-1.104 0-2-.896-2-2V8c0-1.104.896-2 2-2h8c1.104 0 2 .896 2 2v5zM7 23h25l12 12M32 23v12h12"/><path fill="none" stroke="#FFE574" stroke-width="2" stroke-linecap="round" stroke-miterlimit="10" d="M7 1h37v48H7z"/></svg>