<svg xmlns="http://www.w3.org/2000/svg" width="50" height="50" viewBox="0 0 50 50"><path fill="none" stroke="#FFE574" stroke-width="2" stroke-linecap="round" stroke-linejoin="round" stroke-miterlimit="10" d="M39 26.904V13.81c0-2.104-1.743-3.81-3.895-3.81h-14.21C18.743 10 17 11.706 17 13.81v31.38c0 2.104 1.743 3.81 3.895 3.81H30M34 9V2c0-.63-.37-1-1-1H23c-.632 0-1 .37-1 1v7"/><path fill="none" stroke="#FFE574" stroke-width="2" stroke-linecap="round" stroke-linejoin="round" stroke-miterlimit="10" d="M35 23.43c0 .314-.256.57-.57.57H21.57c-.315 0-.57-.256-.57-.57V17.57c0-.316.255-.572.57-.572H34.43c.316 0 .572.256.572.57v5.86zM38 37h4M38 41h4M38 45h4M42 49h-7V33h7M13 49h-1c-1.657 0-3-1.344-3-3V27c0-1.656 1.343-3 3-3h5M9 31h8"/></svg>