<svg xmlns="http://www.w3.org/2000/svg" width="50" height="50" viewBox="0 0 50 50"><path fill="none" stroke="#FFE574" stroke-width="2" stroke-linecap="round" stroke-miterlimit="10" d="M23 39c0 6.075-4.925 10-11 10S1 45.075 1 39V12C1 5.925 5.925 1 12 1s11 4.925 11 11v27zM2 7s5 4 5 21c0 0-6-3-6 9M22 7s-5 4-5 21c0 0 6-3 6 9M17 27v1c0 2.762-2.238 5-5 5s-5-2.238-5-5v-1M5 16h14M5 20h14M5 24h14"/><path fill="none" stroke="#FFE574" stroke-width="2" stroke-linecap="round" stroke-miterlimit="10" d="M49 39c0 6.075-4.925 10-11 10s-11-3.925-11-10V12c0-6.075 4.925-11 11-11s11 4.925 11 11v27zM28 7s5 4 5 21c0 0-6-3-6 9M48 7s-5 4-5 21c0 0 6-3 6 9M43 27v1c0 2.762-2.238 5-5 5s-5-2.238-5-5v-1M31 16h14M31 20h14M31 24h14"/></svg>