<?xml version="1.0" encoding="iso-8859-1"?>
<!-- Generator: Adobe Illustrator 16.0.0, SVG Export Plug-In . SVG Version: 6.00 Build 0)  -->
<!DOCTYPE svg PUBLIC "-//W3C//DTD SVG 1.1//EN" "http://www.w3.org/Graphics/SVG/1.1/DTD/svg11.dtd">
<svg version="1.1" id="Layer_1" xmlns="http://www.w3.org/2000/svg" xmlns:xlink="http://www.w3.org/1999/xlink" x="0px" y="0px"
	 width="49px" height="57px" viewBox="0 0 49 57" style="enable-background:new 0 0 49 57;" xml:space="preserve">
<g>
	<path style="fill:#231F20;" d="M0,0v57h49V0H0z M47,55H2V2h45V55z"/>
	<path style="fill:#231F20;" d="M16,21c3.309,0,6-2.691,6-6s-2.691-6-6-6s-6,2.691-6,6S12.691,21,16,21z M16,11c2.206,0,4,1.794,4,4
		s-1.794,4-4,4s-4-1.794-4-4S13.794,11,16,11z"/>
	<path style="fill:#231F20;" d="M33,21c3.309,0,6-2.691,6-6s-2.691-6-6-6s-6,2.691-6,6S29.691,21,33,21z M33,11c2.206,0,4,1.794,4,4
		s-1.794,4-4,4s-4-1.794-4-4S30.794,11,33,11z"/>
	<path style="fill:#231F20;" d="M16,38c3.309,0,6-2.691,6-6s-2.691-6-6-6s-6,2.691-6,6S12.691,38,16,38z M16,28c2.206,0,4,1.794,4,4
		s-1.794,4-4,4s-4-1.794-4-4S13.794,28,16,28z"/>
	<path style="fill:#231F20;" d="M33,38c3.309,0,6-2.691,6-6s-2.691-6-6-6s-6,2.691-6,6S29.691,38,33,38z M33,28c2.206,0,4,1.794,4,4
		s-1.794,4-4,4s-4-1.794-4-4S30.794,28,33,28z"/>
	<circle style="fill:#231F20;" cx="12.5" cy="48.5" r="2.5"/>
	<circle style="fill:#231F20;" cx="20.5" cy="48.5" r="2.5"/>
	<circle style="fill:#231F20;" cx="28.5" cy="48.5" r="2.5"/>
	<circle style="fill:#231F20;" cx="36.5" cy="48.5" r="2.5"/>
</g>
</svg>
