<?xml version="1.0" encoding="iso-8859-1"?>
<!-- Generator: Adobe Illustrator 16.0.0, SVG Export Plug-In . SVG Version: 6.00 Build 0)  -->
<!DOCTYPE svg PUBLIC "-//W3C//DTD SVG 1.1//EN" "http://www.w3.org/Graphics/SVG/1.1/DTD/svg11.dtd">
<svg version="1.1" id="Layer_1" xmlns="http://www.w3.org/2000/svg" xmlns:xlink="http://www.w3.org/1999/xlink" x="0px" y="0px"
	 width="32px" height="32px" viewBox="0 0 32 32" style="enable-background:new 0 0 32 32;" xml:space="preserve">
<g>
	<path style="fill:#C2C5C5;" d="M23.637,10.908l-2.545-2.545c-0.858-0.857-2.254-0.857-3.112,0l-8.287,8.288l-1.132,6.788
		l6.788-1.132l8.288-8.287C24.494,13.162,24.494,11.767,23.637,10.908z M19.395,9.777c0.077-0.078,0.205-0.078,0.282,0l2.546,2.546
		c0.078,0.077,0.078,0.205,0,0.282l-0.565,0.566l-2.829-2.829L19.395,9.777z M10.994,21.006l0.565-3.394l5.854-5.854l2.828,2.828
		l-5.854,5.854L10.994,21.006z"/>
	
		<rect x="14.575" y="12.824" transform="matrix(-0.7071 -0.7071 0.7071 -0.7071 14.976 39.0509)" style="fill:#C2C5C5;" width="2.001" height="7.199"/>
	<path style="fill:#C2C5C5;" d="M27.313,4.687c-6.238-6.238-16.389-6.238-22.627,0s-6.238,16.389,0,22.627s16.389,6.238,22.627,0
		S33.552,10.925,27.313,4.687z M6.101,25.899c-5.459-5.459-5.459-14.341,0-19.799c5.459-5.459,14.341-5.459,19.799,0
		c5.459,5.458,5.459,14.34,0,19.799C20.441,31.358,11.56,31.358,6.101,25.899z"/>
</g>
</svg>
