<?xml version="1.0" encoding="iso-8859-1"?>
<!-- Generator: Adobe Illustrator 16.0.0, SVG Export Plug-In . SVG Version: 6.00 Build 0)  -->
<!DOCTYPE svg PUBLIC "-//W3C//DTD SVG 1.1//EN" "http://www.w3.org/Graphics/SVG/1.1/DTD/svg11.dtd">
<svg version="1.1" id="Layer_1" xmlns="http://www.w3.org/2000/svg" xmlns:xlink="http://www.w3.org/1999/xlink" x="0px" y="0px"
	 width="52px" height="52px" viewBox="0 0 52 52" style="enable-background:new 0 0 52 52;" xml:space="preserve">
<g>
	<path style="fill:#001B1F;" d="M38.025,16.803l-2.828-2.83c-1.17-1.17-3.076-1.17-4.244,0l-13.63,13.628L14.67,37.33l9.727-2.652
		l13.628-13.63C39.197,19.878,39.197,17.974,38.025,16.803z M33.781,15.389l2.83,2.83c0.391,0.39,0.391,1.024,0,1.415l-1.414,1.415
		l-4.244-4.245l1.414-1.415C32.758,14.998,33.391,14.998,33.781,15.389z M17.522,34.479l1.591-5.836l10.424-10.424l4.244,4.245
		L23.358,32.887L17.522,34.479z"/>
	
		<rect x="24.999" y="19.997" transform="matrix(-0.7074 -0.7069 0.7069 -0.7074 26.0123 62.7704)" style="fill:#001B1F;" width="2.002" height="12.007"/>
	<path style="fill:#001B1F;" d="M44.393,7.606C34.25-2.536,17.749-2.536,7.606,7.606c-10.142,10.143-10.142,26.644,0,36.786
		c10.143,10.143,26.644,10.143,36.786,0S54.535,17.749,44.393,7.606z M9.021,42.979c-9.361-9.361-9.361-24.596,0-33.957
		c9.362-9.361,24.596-9.361,33.957,0s9.361,24.596,0,33.957S18.383,52.34,9.021,42.979z"/>
</g>
</svg>
