<?xml version="1.0" encoding="iso-8859-1"?>
<!-- Generator: Adobe Illustrator 16.0.0, SVG Export Plug-In . SVG Version: 6.00 Build 0)  -->
<!DOCTYPE svg PUBLIC "-//W3C//DTD SVG 1.1//EN" "http://www.w3.org/Graphics/SVG/1.1/DTD/svg11.dtd">
<svg version="1.1" id="Layer_1" xmlns="http://www.w3.org/2000/svg" xmlns:xlink="http://www.w3.org/1999/xlink" x="0px" y="0px"
	 width="52px" height="52px" viewBox="0 0 52 52" style="enable-background:new 0 0 52 52;" xml:space="preserve">
<g>
	<path style="fill:#C2C5C5;" d="M38.021,16.808l-2.828-2.829c-1.169-1.169-3.073-1.169-4.242,0L17.327,27.602l-2.651,9.724
		l9.723-2.652L38.021,21.05C39.19,19.881,39.19,17.978,38.021,16.808z M33.778,15.394l2.828,2.828c0.391,0.39,0.391,1.024,0,1.415
		l-1.414,1.414l-4.242-4.243l1.414-1.414C32.754,15.003,33.388,15.003,33.778,15.394z M17.526,34.475l1.591-5.834l10.418-10.419
		l4.243,4.243L23.359,32.883L17.526,34.475z"/>
	
		<rect x="25" y="20" transform="matrix(-0.7074 -0.7069 0.7069 -0.7074 26.0121 62.7698)" style="fill:#C2C5C5;" width="2" height="12.001"/>
	<path style="fill:#C2C5C5;" d="M44.385,7.615c-10.138-10.138-26.632-10.138-36.77,0s-10.138,26.632,0,36.77s26.632,10.138,36.77,0
		S54.522,17.753,44.385,7.615z M9.029,42.971c-9.357-9.357-9.356-24.584,0-33.941c9.357-9.357,24.584-9.357,33.941,0
		c9.356,9.357,9.357,24.584,0,33.941C33.614,52.327,18.386,52.327,9.029,42.971z"/>
</g>
</svg>
