<?xml version="1.0" encoding="iso-8859-1"?>
<!-- Generator: Adobe Illustrator 16.0.0, SVG Export Plug-In . SVG Version: 6.00 Build 0)  -->
<!DOCTYPE svg PUBLIC "-//W3C//DTD SVG 1.1//EN" "http://www.w3.org/Graphics/SVG/1.1/DTD/svg11.dtd">
<svg version="1.1" id="Layer_1" xmlns="http://www.w3.org/2000/svg" xmlns:xlink="http://www.w3.org/1999/xlink" x="0px" y="0px"
	 width="20px" height="24px" viewBox="0 0 20 24" style="enable-background:new 0 0 20 24;" xml:space="preserve">
<g>
	<g>
		<path style="fill:#FFFFFF;" d="M20,24H4v-7c0-0.553,0.448-1,1-1s1,0.447,1,1v5h12V2H6v5c0,0.552-0.448,1-1,1S4,7.552,4,7V0h16V24z
			"/>
	</g>
	<g>
		<path style="fill:#FFFFFF;" d="M12,13H1c-0.552,0-1-0.448-1-1s0.448-1,1-1h11c0.553,0,1,0.448,1,1S12.553,13,12,13z"/>
	</g>
	<g>
		<path style="fill:#FFFFFF;" d="M9,16c-0.256,0-0.512-0.098-0.707-0.293c-0.391-0.391-0.391-1.023,0-1.414L10.586,12L8.293,9.707
			c-0.391-0.391-0.391-1.023,0-1.414s1.023-0.391,1.414,0L13.414,12l-3.707,3.707C9.512,15.902,9.256,16,9,16z"/>
	</g>
</g>
</svg>
