<?xml version="1.0" encoding="iso-8859-1"?>
<!-- Generator: Adobe Illustrator 16.0.0, SVG Export Plug-In . SVG Version: 6.00 Build 0)  -->
<!DOCTYPE svg PUBLIC "-//W3C//DTD SVG 1.1//EN" "http://www.w3.org/Graphics/SVG/1.1/DTD/svg11.dtd">
<svg version="1.1" xmlns="http://www.w3.org/2000/svg" xmlns:xlink="http://www.w3.org/1999/xlink" x="0px" y="0px" width="72px"
	 height="74px" viewBox="0 0 72 74" style="enable-background:new 0 0 72 74;" xml:space="preserve">
<g id="_x30_1">
	<g>

			<line style="fill:none;stroke:#23c8ac;stroke-width:4;stroke-linecap:round;stroke-miterlimit:10;" x1="24" y1="8" x2="48" y2="8"/>
		<polyline style="fill:none;stroke:#23c8ac;stroke-width:4;stroke-linecap:round;stroke-miterlimit:10;" points="62,8 70,8 70,72
			2,72 2,8 10,8 		"/>

			<line style="fill:none;stroke:#23c8ac;stroke-width:4;stroke-linecap:round;stroke-miterlimit:10;" x1="2" y1="22" x2="70" y2="22"/>

			<rect x="56" y="58" style="fill:none;stroke:#23c8ac;stroke-width:4;stroke-linecap:round;stroke-miterlimit:10;" width="14" height="14"/>

			<line style="fill:none;stroke:#23c8ac;stroke-width:4;stroke-linecap:round;stroke-miterlimit:10;" x1="70" y1="58" x2="56" y2="72"/>

			<line style="fill:none;stroke:#23c8ac;stroke-width:4;stroke-linecap:round;stroke-miterlimit:10;" x1="17" y1="11" x2="17" y2="2"/>

			<line style="fill:none;stroke:#23c8ac;stroke-width:4;stroke-linecap:round;stroke-miterlimit:10;" x1="55" y1="11" x2="55" y2="2"/>

			<line style="fill:none;stroke:#23c8ac;stroke-width:4;stroke-linecap:round;stroke-miterlimit:10;" x1="38" y1="41" x2="55" y2="41"/>

			<line style="fill:none;stroke:#23c8ac;stroke-width:4;stroke-linecap:round;stroke-miterlimit:10;" x1="38" y1="49" x2="46" y2="49"/>

			<path style="fill-rule:evenodd;clip-rule:evenodd;fill:none;stroke:#23c8ac;stroke-width:4;stroke-linecap:round;stroke-linejoin:round;stroke-miterlimit:10;" d="
			M19,44c0-3,7-5.625,7,1.125C26,47.547,18,54,18,54h9"/>
	</g>
</g>
<g id="Layer_1">
</g>
</svg>
