<?xml version="1.0" encoding="iso-8859-1"?>
<!-- Generator: Adobe Illustrator 16.0.0, SVG Export Plug-In . SVG Version: 6.00 Build 0)  -->
<!DOCTYPE svg PUBLIC "-//W3C//DTD SVG 1.1//EN" "http://www.w3.org/Graphics/SVG/1.1/DTD/svg11.dtd">
<svg version="1.1" xmlns="http://www.w3.org/2000/svg" xmlns:xlink="http://www.w3.org/1999/xlink" x="0px" y="0px" width="80px"
	 height="67.257px" viewBox="0 0 80 67.257" style="enable-background:new 0 0 80 67.257;" xml:space="preserve">
<g id="_x30_3">
	<g>

			<path style="fill-rule:evenodd;clip-rule:evenodd;fill:none;stroke:#23c8ac;stroke-width:4;stroke-linecap:round;stroke-miterlimit:10;" d="
			M40,64c0,0,7-9,38-9V2c-31,0-38,9-38,9S33,2,2,2v53C33,55,40,64,40,64z"/>

			<line style="fill:none;stroke:#23c8ac;stroke-width:4;stroke-linecap:round;stroke-miterlimit:10;" x1="40" y1="11" x2="40" y2="63"/>
		<g>
			<path style="fill:none;stroke:#23c8ac;stroke-width:4;stroke-linecap:round;stroke-miterlimit:10;" d="M32,17.428
				C27.009,15.544,21.331,13.629,10,13"/>
			<path style="fill:none;stroke:#23c8ac;stroke-width:4;stroke-linecap:round;stroke-miterlimit:10;" d="M10,13"/>
			<path style="fill:none;stroke:#23c8ac;stroke-width:4;stroke-linecap:round;stroke-miterlimit:10;" d="M32,17.428"/>
		</g>
		<g>
			<path style="fill:none;stroke:#23c8ac;stroke-width:4;stroke-linecap:round;stroke-miterlimit:10;" d="M32,28
				c-4.991-1.883-10.669-3.798-22-4.428"/>
			<path style="fill:none;stroke:#23c8ac;stroke-width:4;stroke-linecap:round;stroke-miterlimit:10;" d="M10,23.572"/>
			<path style="fill:none;stroke:#23c8ac;stroke-width:4;stroke-linecap:round;stroke-miterlimit:10;" d="M32,28"/>
		</g>
		<g>
			<path style="fill:none;stroke:#23c8ac;stroke-width:4;stroke-linecap:round;stroke-miterlimit:10;" d="M32,38.428
				C27.009,36.545,21.331,34.629,10,34"/>
			<path style="fill:none;stroke:#23c8ac;stroke-width:4;stroke-linecap:round;stroke-miterlimit:10;" d="M10,34"/>
			<path style="fill:none;stroke:#23c8ac;stroke-width:4;stroke-linecap:round;stroke-miterlimit:10;" d="M32,38.428"/>
		</g>
		<g>
			<path style="fill:none;stroke:#23c8ac;stroke-width:4;stroke-linecap:round;stroke-miterlimit:10;" d="M32,49
				c-4.991-1.883-10.669-3.799-22-4.428"/>
			<path style="fill:none;stroke:#23c8ac;stroke-width:4;stroke-linecap:round;stroke-miterlimit:10;" d="M10,44.572"/>
			<path style="fill:none;stroke:#23c8ac;stroke-width:4;stroke-linecap:round;stroke-miterlimit:10;" d="M32,49"/>
		</g>
		<g>
			<path style="fill:none;stroke:#23c8ac;stroke-width:4;stroke-linecap:round;stroke-miterlimit:10;" d="M48,17.428
				c4.991-1.883,10.669-3.798,22-4.428"/>
			<path style="fill:none;stroke:#23c8ac;stroke-width:4;stroke-linecap:round;stroke-miterlimit:10;" d="M70,13"/>
			<path style="fill:none;stroke:#23c8ac;stroke-width:4;stroke-linecap:round;stroke-miterlimit:10;" d="M48,17.428"/>
		</g>
		<g>
			<path style="fill:none;stroke:#23c8ac;stroke-width:4;stroke-linecap:round;stroke-miterlimit:10;" d="M48,28
				c4.991-1.883,10.669-3.798,22-4.428"/>
			<path style="fill:none;stroke:#23c8ac;stroke-width:4;stroke-linecap:round;stroke-miterlimit:10;" d="M70,23.572"/>
			<path style="fill:none;stroke:#23c8ac;stroke-width:4;stroke-linecap:round;stroke-miterlimit:10;" d="M48,28"/>
		</g>
		<g>
			<path style="fill:none;stroke:#23c8ac;stroke-width:4;stroke-linecap:round;stroke-miterlimit:10;" d="M48,38.428
				c4.991-1.883,10.669-3.799,22-4.428"/>
			<path style="fill:none;stroke:#23c8ac;stroke-width:4;stroke-linecap:round;stroke-miterlimit:10;" d="M70,34"/>
			<path style="fill:none;stroke:#23c8ac;stroke-width:4;stroke-linecap:round;stroke-miterlimit:10;" d="M48,38.428"/>
		</g>
		<g>
			<path style="fill:none;stroke:#23c8ac;stroke-width:4;stroke-linecap:round;stroke-miterlimit:10;" d="M48,49
				c4.991-1.883,10.669-3.799,22-4.428"/>
			<path style="fill:none;stroke:#23c8ac;stroke-width:4;stroke-linecap:round;stroke-miterlimit:10;" d="M70,44.572"/>
			<path style="fill:none;stroke:#23c8ac;stroke-width:4;stroke-linecap:round;stroke-miterlimit:10;" d="M48,49"/>
		</g>
	</g>
</g>
<g id="Layer_1">
</g>
</svg>
