<?xml version="1.0" encoding="iso-8859-1"?>
<!-- Generator: Adobe Illustrator 16.0.0, SVG Export Plug-In . SVG Version: 6.00 Build 0)  -->
<!DOCTYPE svg PUBLIC "-//W3C//DTD SVG 1.1//EN" "http://www.w3.org/Graphics/SVG/1.1/DTD/svg11.dtd">
<svg version="1.1" xmlns="http://www.w3.org/2000/svg" xmlns:xlink="http://www.w3.org/1999/xlink" x="0px" y="0px" width="92px"
	 height="92px" viewBox="0 0 92 92" style="enable-background:new 0 0 92 92;" xml:space="preserve">
<g id="_x30_4">
	<path style="fill:none;stroke:#23c8ac;stroke-width:4;stroke-linecap:round;stroke-miterlimit:10;" d="M22,47c0,0,8-9,8-26h30
		c0,17,8,26,8,26l3,43H19L22,47z"/>
	<path style="fill:none;stroke:#23c8ac;stroke-width:4;stroke-linecap:round;stroke-miterlimit:10;" d="M55,63
		c0,5.522-4.477,10-10,10c-5.523,0-10-4.478-10-10v-6h20V63z"/>

		<line style="fill:none;stroke:#23c8ac;stroke-width:4;stroke-linecap:round;stroke-miterlimit:10;" x1="30" y1="21" x2="30" y2="2"/>

		<line style="fill:none;stroke:#23c8ac;stroke-width:4;stroke-linecap:round;stroke-miterlimit:10;" x1="60" y1="21" x2="60" y2="2"/>

		<line style="fill:none;stroke:#23c8ac;stroke-width:4;stroke-linecap:round;stroke-miterlimit:10;" x1="30" y1="30" x2="60" y2="30"/>
	<path style="fill:none;stroke:#23c8ac;stroke-width:4;stroke-linecap:round;stroke-miterlimit:10;" d="M68,47c0,0,6-7,11-6
		s11-4,11-4"/>
	<path style="fill:none;stroke:#23c8ac;stroke-width:4;stroke-linecap:round;stroke-miterlimit:10;" d="M22,47c0,0-8-1-11-7
		s-9-7-9-7"/>
</g>
<g id="Layer_1">
</g>
</svg>
