<?xml version="1.0" encoding="iso-8859-1"?>
<!-- Generator: Adobe Illustrator 16.0.0, SVG Export Plug-In . SVG Version: 6.00 Build 0)  -->
<!DOCTYPE svg PUBLIC "-//W3C//DTD SVG 1.1//EN" "http://www.w3.org/Graphics/SVG/1.1/DTD/svg11.dtd">
<svg version="1.1" xmlns="http://www.w3.org/2000/svg" xmlns:xlink="http://www.w3.org/1999/xlink" x="0px" y="0px" width="64px"
	 height="81.52px" viewBox="0 0 64 81.52" style="enable-background:new 0 0 64 81.52;" xml:space="preserve">
<g id="_x30_6">
	<g>
		<path style="fill:none;stroke:#23c8ac;stroke-width:4;stroke-linecap:round;stroke-miterlimit:10;" d="M52,27
			c0,13.808-25,50-25,50S2,40.808,2,27C2,13.193,13.193,2,27,2S52,13.193,52,27z"/>
		<polyline style="fill:none;stroke:#23c8ac;stroke-width:4;stroke-linecap:round;stroke-miterlimit:10;" points="17,32 21,21
			27,27 33,21 37,32 		"/>
		<path style="fill:none;stroke:#23c8ac;stroke-width:4;stroke-linecap:round;stroke-miterlimit:10;" d="M48.303,41.146
			C50.99,41.741,53,44.134,53,47c0,3.313-2.686,6-6,6c-1.457,0-2.791-0.52-3.83-1.383"/>
		<path style="fill:none;stroke:#23c8ac;stroke-width:4;stroke-linecap:round;stroke-miterlimit:10;" d="M37.224,62.03
			C41.554,70.111,47,78,47,78s15-21.716,15-30c0-6.871-4.626-12.649-10.929-14.426"/>
	</g>
</g>
<g id="Layer_1">
</g>
</svg>
