<?xml version="1.0" encoding="iso-8859-1"?>
<!-- Generator: Adobe Illustrator 16.0.0, SVG Export Plug-In . SVG Version: 6.00 Build 0)  -->
<!DOCTYPE svg PUBLIC "-//W3C//DTD SVG 1.1//EN" "http://www.w3.org/Graphics/SVG/1.1/DTD/svg11.dtd">
<svg version="1.1" xmlns="http://www.w3.org/2000/svg" xmlns:xlink="http://www.w3.org/1999/xlink" x="0px" y="0px"
	 width="90.279px" height="90.279px" viewBox="0 0 90.279 90.279" style="enable-background:new 0 0 90.279 79.149;"
	 xml:space="preserve">
<g id="_x30_5">
	<g>
		<path style="fill:none;stroke:#000000;stroke-width:4;stroke-linecap:round;stroke-miterlimit:10;" d="M19,70.538
			c0,0-5.681-28.195,20-32c27-4,49-10,49-10S81,98.538,19,70.538z"/>
		<path style="fill:none;stroke:#000000;stroke-width:4;stroke-linecap:round;stroke-miterlimit:10;" d="M2,74.538c0,0,39-6,71-32"
			/>
		<path style="fill:none;stroke:#000000;stroke-width:4;stroke-linecap:round;stroke-miterlimit:10;" d="M34,51.538c0,0-3,8-1,14"/>
		<path style="fill:none;stroke:#000000;stroke-width:4;stroke-linecap:round;stroke-miterlimit:10;" d="M51,45.538c0,0-2,10-1,12"
			/>
		<path style="fill:none;stroke:#000000;stroke-width:4;stroke-linecap:round;stroke-miterlimit:10;" d="M49,66.538c0,0-5-1-8-4"/>
		<path style="fill:none;stroke:#000000;stroke-width:4;stroke-linecap:round;stroke-miterlimit:10;" d="M68,53.538c0,0-5-1-7-2"/>
		<path style="fill:none;stroke:#000000;stroke-width:4;stroke-linecap:round;stroke-miterlimit:10;" d="M52,14.649
			c0-3.59-6.5-11.5-6.5-11.5s-6.5,7.91-6.5,11.5s2.91,6.5,6.5,6.5S52,18.239,52,14.649z"/>
	</g>
</g>
<g id="Layer_1">
</g>
</svg>
