<?xml version="1.0" encoding="utf-8"?>
<!-- Generator: Adobe Illustrator 16.0.0, SVG Export Plug-In . SVG Version: 6.00 Build 0)  -->
<!DOCTYPE svg PUBLIC "-//W3C//DTD SVG 1.1//EN" "http://www.w3.org/Graphics/SVG/1.1/DTD/svg11.dtd">
<svg version="1.1" xmlns="http://www.w3.org/2000/svg" xmlns:xlink="http://www.w3.org/1999/xlink" x="0px" y="0px" width="100px"
	 height="100px" viewBox="-504.361 245.639 100 100" enable-background="new -504.361 245.639 100 100" xml:space="preserve">
<g id="_x31_">
	<g id="страницы_2_">
		
			<rect x="-491.361" y="257.639" fill="none" stroke="#000000" stroke-width="4" stroke-linecap="round" stroke-miterlimit="10" width="67" height="66"/>
		<polyline fill="none" stroke="#000000" stroke-width="4" stroke-linecap="round" stroke-miterlimit="10" points="
			-416.361,267.639 -416.361,331.639 -481.361,331.639 		"/>
		
			<line fill="none" stroke="#000000" stroke-width="4" stroke-linecap="round" stroke-miterlimit="10" x1="-491.361" y1="267.639" x2="-424.361" y2="267.639"/>
		
			<line fill="none" stroke="#000000" stroke-width="4" stroke-linecap="round" stroke-miterlimit="10" x1="-470.361" y1="286.639" x2="-445.361" y2="286.639"/>
		
			<line fill="none" stroke="#000000" stroke-width="4" stroke-linecap="round" stroke-miterlimit="10" x1="-470.361" y1="295.639" x2="-445.361" y2="295.639"/>
		
			<line fill="none" stroke="#000000" stroke-width="4" stroke-linecap="round" stroke-miterlimit="10" x1="-470.361" y1="304.639" x2="-445.361" y2="304.639"/>
	</g>
</g>
<g id="_x32_" display="none">
	<g id="щит_2_" display="inline">
		<path fill="none" stroke="#000000" stroke-width="4" stroke-miterlimit="10" d="M-454.361,253.639
			c17.455,9.83,32,11.616,32,11.616v41.574c0,16.288-32,26.81-32,26.81s-32-10.521-32-26.81v-41.574
			C-486.361,265.256-471.816,263.469-454.361,253.639z"/>
		<g>
			
				<line fill="none" stroke="#000000" stroke-width="4" stroke-miterlimit="10" x1="-482.327" y1="316.368" x2="-429.598" y2="263.639"/>
			
				<line fill="none" stroke="#000000" stroke-width="4" stroke-miterlimit="10" x1="-422.361" y1="271.911" x2="-474.225" y2="323.775"/>
		</g>
	</g>
</g>
<g id="_x33_" display="none">
	<g id="_x30_5" display="inline">
		<g>
			<path fill="none" stroke="#000000" stroke-width="4" stroke-linecap="round" stroke-miterlimit="10" d="M-480.361,320.028
				c0,0-5.681-28.195,20-32c27-4,49-10,49-10S-418.361,348.028-480.361,320.028z"/>
			<path fill="none" stroke="#000000" stroke-width="4" stroke-linecap="round" stroke-miterlimit="10" d="M-497.361,324.028
				c0,0,39-6,71-32"/>
			<path fill="none" stroke="#000000" stroke-width="4" stroke-linecap="round" stroke-miterlimit="10" d="M-465.361,301.028
				c0,0-3,8-1,14"/>
			<path fill="none" stroke="#000000" stroke-width="4" stroke-linecap="round" stroke-miterlimit="10" d="M-448.361,295.028
				c0,0-2,10-1,12"/>
			<path fill="none" stroke="#000000" stroke-width="4" stroke-linecap="round" stroke-miterlimit="10" d="M-450.361,316.028
				c0,0-5-1-8-4"/>
			<path fill="none" stroke="#000000" stroke-width="4" stroke-linecap="round" stroke-miterlimit="10" d="M-431.361,303.028
				c0,0-5-1-7-2"/>
			<path fill="none" stroke="#000000" stroke-width="4" stroke-linecap="round" stroke-miterlimit="10" d="M-447.361,264.139
				c0-3.59-6.5-11.5-6.5-11.5s-6.5,7.91-6.5,11.5s2.91,6.5,6.5,6.5S-447.361,267.729-447.361,264.139z"/>
		</g>
	</g>
</g>
<g id="_x34_" display="none">
	<g id="лупа" display="inline">
		
			<circle fill-rule="evenodd" clip-rule="evenodd" fill="none" stroke="#000000" stroke-width="4" stroke-linecap="round" stroke-linejoin="round" stroke-miterlimit="10" cx="-439.361" cy="280.639" r="25"/>
		<path fill="none" stroke="#000000" stroke-width="4" stroke-miterlimit="10" d="M-458.25,305.529l-29,29
			c-1.481,1.48-4.519,1.48-6,0l0,0c-1.48-1.481-1.48-4.519,0-6l29-29L-458.25,305.529z"/>
		
			<line fill="none" stroke="#000000" stroke-width="6" stroke-miterlimit="10" x1="-460.361" y1="301.639" x2="-456.361" y2="297.639"/>
	</g>
</g>
</svg>
