<?xml version="1.0" encoding="utf-8"?>
<!-- Generator: Adobe Illustrator 16.0.0, SVG Export Plug-In . SVG Version: 6.00 Build 0)  -->
<!DOCTYPE svg PUBLIC "-//W3C//DTD SVG 1.1//EN" "http://www.w3.org/Graphics/SVG/1.1/DTD/svg11.dtd">
<svg version="1.1" id="Layer_1" xmlns="http://www.w3.org/2000/svg" xmlns:xlink="http://www.w3.org/1999/xlink" x="0px" y="0px"
	 width="24px" height="20px" viewBox="0 0 24 20" enable-background="new 0 0 24 20" xml:space="preserve">
<g>
	<path fill="#FFFFFF" d="M17,4c-0.553,0-1,0.448-1,1s0.447,1,1,1h5v12H2V6h5c0.552,0,1-0.448,1-1S7.552,4,7,4H0v16h24V4H17z"/>
	<path fill="#FFFFFF" d="M8.293,9.707l3,2.999c0,0.001,0.001,0.001,0.001,0.002L12,13.414l0.706-0.706
		c0-0.001,0.001-0.001,0.001-0.002l3-2.999c0.391-0.391,0.391-1.023,0-1.414s-1.023-0.391-1.414,0L13,9.586V1c0-0.552-0.448-1-1-1
		s-1,0.448-1,1v8.586L9.707,8.293c-0.391-0.391-1.023-0.391-1.414,0S7.902,9.316,8.293,9.707z"/>
</g>
</svg>
