<?xml version="1.0" encoding="iso-8859-1"?>
<!-- Generator: Adobe Illustrator 16.0.0, SVG Export Plug-In . SVG Version: 6.00 Build 0)  -->
<!DOCTYPE svg PUBLIC "-//W3C//DTD SVG 1.1//EN" "http://www.w3.org/Graphics/SVG/1.1/DTD/svg11.dtd">
<svg version="1.1" id="Layer_1" xmlns="http://www.w3.org/2000/svg" xmlns:xlink="http://www.w3.org/1999/xlink" x="0px" y="0px"
	 width="16px" height="21px" viewBox="0 0 16 21" style="enable-background:new 0 0 16 21;" xml:space="preserve">
<path style="fill-rule:evenodd;clip-rule:evenodd;fill:#F8CC6A;" d="M8,21c0,0-8-6.988-8-13c0-4.418,3.582-8,8-8s8,3.582,8,8
	C16,13.981,8,21,8,21z M8,2C4.687,2,2,4.899,2,8.476C2,12.937,8,18,8,18s6-4.995,6-9.524C14,4.899,11.313,2,8,2z M8,12
	c-2.209,0-4-1.791-4-4s1.791-4,4-4s4,1.791,4,4S10.209,12,8,12z M8,6C6.896,6,6,6.896,6,8s0.896,2,2,2s2-0.896,2-2S9.104,6,8,6z"/>
</svg>
