<?xml version="1.0" encoding="iso-8859-1"?>
<!-- Generator: Adobe Illustrator 16.0.0, SVG Export Plug-In . SVG Version: 6.00 Build 0)  -->
<!DOCTYPE svg PUBLIC "-//W3C//DTD SVG 1.1//EN" "http://www.w3.org/Graphics/SVG/1.1/DTD/svg11.dtd">
<svg version="1.1" id="Layer_1" xmlns="http://www.w3.org/2000/svg" xmlns:xlink="http://www.w3.org/1999/xlink" x="0px" y="0px"
	 width="22px" height="22px" viewBox="0 0 22 22" style="enable-background:new 0 0 22 22;" xml:space="preserve">
<path style="fill-rule:evenodd;clip-rule:evenodd;fill:#FFFFFF;" d="M11,22C4.925,22,0,17.075,0,11S4.925,0,11,0s11,4.925,11,11
	S17.075,22,11,22z M11,2c-4.971,0-9,4.029-9,9s4.029,9,9,9s9-4.029,9-9S15.971,2,11,2z M11.5,12H10v1h4v2h-4v2H8v-2H7v-2h1v-1H7v-2
	h1V7V5h2h1.5C13.433,5,15,6.567,15,8.5S13.433,12,11.5,12z M11.5,7H10v3h1.5c0.828,0,1.5-0.671,1.5-1.5S12.328,7,11.5,7z"/>
</svg>
