<svg xmlns="http://www.w3.org/2000/svg" width="80" height="67.257" viewBox="0 0 80 67.257"><g fill="none" stroke="#23c8ac" stroke-width="4" stroke-linecap="round" stroke-miterlimit="10"><path d="M40 64s7-9 38-9V2c-31 0-38 9-38 9S33 2 2 2v53c31 0 38 9 38 9z" fill-rule="evenodd" clip-rule="evenodd"/><path d="M40 11v52M32 17.428c-4.99-1.884-10.67-3.8-22-4.428M10 13M32 17.428M32 28c-4.99-1.883-10.67-3.798-22-4.428M10 23.572M32 28M32 38.428c-4.99-1.883-10.67-3.8-22-4.428M10 34M32 38.428M32 49c-4.99-1.883-10.67-3.8-22-4.428M10 44.572M32 49M48 17.428C52.99 15.545 58.67 13.63 70 13M70 13M48 17.428M48 28c4.99-1.883 10.67-3.798 22-4.428M70 23.572M48 28M48 38.428c4.99-1.883 10.67-3.8 22-4.428M70 34M48 38.428M48 49c4.99-1.883 10.67-3.8 22-4.428M70 44.572M48 49"/></g></svg>