<?xml version="1.0" encoding="utf-8"?>
<!-- Generator: Adobe Illustrator 16.0.0, SVG Export Plug-In . SVG Version: 6.00 Build 0)  -->
<!DOCTYPE svg PUBLIC "-//W3C//DTD SVG 1.1//EN" "http://www.w3.org/Graphics/SVG/1.1/DTD/svg11.dtd">
<svg version="1.1" id="Layer_1" xmlns="http://www.w3.org/2000/svg" xmlns:xlink="http://www.w3.org/1999/xlink" x="0px" y="0px"
	 width="50px" height="50px" viewBox="0 0 50 50" enable-background="new 0 0 50 50" xml:space="preserve">
<path fill="none" stroke="#FFE574" stroke-width="2" stroke-linecap="round" stroke-miterlimit="10" d="M24,13c0,1.104-0.896,2-2,2
	h-8c-1.104,0-2-0.896-2-2V8c0-1.104,0.896-2,2-2h8c1.104,0,2,0.896,2,2V13z"/>
<path fill="none" stroke="#FFE574" stroke-width="2" stroke-linecap="round" stroke-miterlimit="10" d="M39,13c0,1.104-0.896,2-2,2
	h-8c-1.104,0-2-0.896-2-2V8c0-1.104,0.896-2,2-2h8c1.104,0,2,0.896,2,2V13z"/>
<polyline fill="none" stroke="#FFE574" stroke-width="2" stroke-linecap="round" stroke-miterlimit="10" points="7,23 32,23 44,35 
	"/>
<polyline fill="none" stroke="#FFE574" stroke-width="2" stroke-linecap="round" stroke-miterlimit="10" points="32,23 32,35 44,35 
	"/>
<rect x="7" y="1" fill="none" stroke="#FFE574" stroke-width="2" stroke-linecap="round" stroke-miterlimit="10" width="37" height="48"/>
</svg>
