<?xml version="1.0" encoding="utf-8"?>
<!-- Generator: Adobe Illustrator 16.0.0, SVG Export Plug-In . SVG Version: 6.00 Build 0)  -->
<!DOCTYPE svg PUBLIC "-//W3C//DTD SVG 1.1//EN" "http://www.w3.org/Graphics/SVG/1.1/DTD/svg11.dtd">
<svg version="1.1" id="Layer_1" xmlns="http://www.w3.org/2000/svg" xmlns:xlink="http://www.w3.org/1999/xlink" x="0px" y="0px"
	 width="50px" height="50px" viewBox="0 0 50 50" enable-background="new 0 0 50 50" xml:space="preserve">
<path fill="none" stroke="#FFE574" stroke-width="2" stroke-linecap="round" stroke-linejoin="round" stroke-miterlimit="10" d="
	M39,26.904V13.81c0-2.104-1.743-3.81-3.895-3.81h-14.21C18.743,10,17,11.706,17,13.81v31.379C17,47.294,18.743,49,20.895,49H30"/>
<path fill="none" stroke="#FFE574" stroke-width="2" stroke-linecap="round" stroke-linejoin="round" stroke-miterlimit="10" d="
	M34,9V2c0-0.631-0.369-1-1-1H23c-0.632,0-1,0.369-1,1v7"/>
<path fill="none" stroke="#FFE574" stroke-width="2" stroke-linecap="round" stroke-linejoin="round" stroke-miterlimit="10" d="
	M35,23.429C35,23.744,34.744,24,34.43,24H21.571C21.255,24,21,23.744,21,23.429v-5.857C21,17.256,21.255,17,21.571,17h12.857
	C34.744,17,35,17.256,35,17.571V23.429z"/>
<line fill="none" stroke="#FFE574" stroke-width="2" stroke-linecap="round" stroke-linejoin="round" stroke-miterlimit="10" x1="38" y1="37" x2="42" y2="37"/>
<line fill="none" stroke="#FFE574" stroke-width="2" stroke-linecap="round" stroke-linejoin="round" stroke-miterlimit="10" x1="38" y1="41" x2="42" y2="41"/>
<line fill="none" stroke="#FFE574" stroke-width="2" stroke-linecap="round" stroke-linejoin="round" stroke-miterlimit="10" x1="38" y1="45" x2="42" y2="45"/>
<polyline fill="none" stroke="#FFE574" stroke-width="2" stroke-linecap="round" stroke-linejoin="round" stroke-miterlimit="10" points="
	42,49 35,49 35,33 42,33 "/>
<path fill="none" stroke="#FFE574" stroke-width="2" stroke-linecap="round" stroke-linejoin="round" stroke-miterlimit="10" d="
	M13,49h-1c-1.657,0-3-1.344-3-3V27c0-1.656,1.343-3,3-3h5"/>
<line fill="none" stroke="#FFE574" stroke-width="2" stroke-linecap="round" stroke-linejoin="round" stroke-miterlimit="10" x1="9" y1="31" x2="17" y2="31"/>
</svg>
