<?xml version="1.0" encoding="utf-8"?>
<!-- Generator: Adobe Illustrator 16.0.0, SVG Export Plug-In . SVG Version: 6.00 Build 0)  -->
<!DOCTYPE svg PUBLIC "-//W3C//DTD SVG 1.1//EN" "http://www.w3.org/Graphics/SVG/1.1/DTD/svg11.dtd">
<svg version="1.1" id="Layer_1" xmlns="http://www.w3.org/2000/svg" xmlns:xlink="http://www.w3.org/1999/xlink" x="0px" y="0px"
	 width="50px" height="50px" viewBox="0 0 50 50" enable-background="new 0 0 50 50" xml:space="preserve">
<polygon fill="none" stroke="#FFE574" stroke-width="2" stroke-linecap="round" stroke-miterlimit="10" points="43.361,45 
	29.361,45 27.361,23 45.361,23 "/>
<path fill="none" stroke="#FFE574" stroke-width="2" stroke-linecap="round" stroke-miterlimit="10" d="M45.637,27.732
	c2.182,0.352,3.663,2.404,3.313,4.586c-0.352,2.181-2.404,3.664-4.586,3.313"/>
<path fill="none" stroke="#FFE574" stroke-width="2" stroke-linecap="round" stroke-miterlimit="10" d="M23,36.75
	c-7.593,0-13.75-6.156-13.75-13.75S15.407,9.25,23,9.25c5.828,0,10.797,3.631,12.799,8.75"/>
<path fill="none" stroke="#FFE574" stroke-width="2" stroke-linecap="round" stroke-miterlimit="10" d="M35.799,18"/>
<path fill="none" stroke="#FFE574" stroke-width="2" stroke-linecap="round" stroke-miterlimit="10" d="M44.422,18"/>
<path fill="none" stroke="#FFE574" stroke-width="2" stroke-linecap="round" stroke-miterlimit="10" d="M44.422,18
	C42.157,8.26,33.43,1,23,1C10.85,1,1,10.85,1,23c0,12.15,9.85,22,22,22"/>
</svg>
