<?xml version="1.0" encoding="utf-8"?>
<!-- Generator: Adobe Illustrator 16.0.0, SVG Export Plug-In . SVG Version: 6.00 Build 0)  -->
<!DOCTYPE svg PUBLIC "-//W3C//DTD SVG 1.1//EN" "http://www.w3.org/Graphics/SVG/1.1/DTD/svg11.dtd">
<svg version="1.1" id="Layer_1" xmlns="http://www.w3.org/2000/svg" xmlns:xlink="http://www.w3.org/1999/xlink" x="0px" y="0px"
	 width="50px" height="50px" viewBox="0 0 50 50" enable-background="new 0 0 50 50" xml:space="preserve">
<path fill="none" stroke="#FFE574" stroke-width="2" stroke-linecap="round" stroke-miterlimit="10" d="M13,49V38
	c0-1.42,1.579-2.973,3-2.973l0,0c1.42,0,2.058,1.152,2.058,2.572"/>
<polyline fill="none" stroke="#FFE574" stroke-width="2" stroke-linecap="round" stroke-miterlimit="10" points="8,38 4,38 4,1 
	47,1 47,38 43,38 "/>
<path fill="none" stroke="#FFE574" stroke-width="2" stroke-linecap="round" stroke-miterlimit="10" d="M23,34V23
	c0-1.104-0.896-2-2-2h-1c-1.104,0-2,0.896-2,2v20"/>
<path fill="none" stroke="#FFE574" stroke-width="2" stroke-linecap="round" stroke-miterlimit="10" d="M28,34V18
	c0-1.104-0.896-2-2-2h-1c-1.104,0-2,0.896-2,2v16"/>
<path fill="none" stroke="#FFE574" stroke-width="2" stroke-linecap="round" stroke-miterlimit="10" d="M33,34V21
	c0-1.104-0.896-2-2-2h-1c-1.104,0-2,0.896-2,2v13"/>
<path fill="none" stroke="#FFE574" stroke-width="2" stroke-linecap="round" stroke-miterlimit="10" d="M33,34v-8
	c0-1.104,0.896-2,2-2h1c1.104,0,2,0.896,2,2v23"/>
</svg>
