<?xml version="1.0" encoding="utf-8"?>
<!-- Generator: Adobe Illustrator 16.0.0, SVG Export Plug-In . SVG Version: 6.00 Build 0)  -->
<!DOCTYPE svg PUBLIC "-//W3C//DTD SVG 1.1//EN" "http://www.w3.org/Graphics/SVG/1.1/DTD/svg11.dtd">
<svg version="1.1" id="Layer_1" xmlns="http://www.w3.org/2000/svg" xmlns:xlink="http://www.w3.org/1999/xlink" x="0px" y="0px"
	 width="50px" height="50px" viewBox="0 0 50 50" enable-background="new 0 0 50 50" xml:space="preserve">
<path fill="none" stroke="#FFE574" stroke-width="2" stroke-linecap="round" stroke-miterlimit="10" d="M23,39
	c0,6.075-4.925,10-11,10l0,0C5.925,49,1,45.075,1,39V12C1,5.925,5.925,1,12,1l0,0c6.075,0,11,4.925,11,11V39z"/>
<path fill="none" stroke="#FFE574" stroke-width="2" stroke-linecap="round" stroke-miterlimit="10" d="M2,7c0,0,5,4,5,21
	c0,0-6-3-6,9"/>
<path fill="none" stroke="#FFE574" stroke-width="2" stroke-linecap="round" stroke-miterlimit="10" d="M22,7c0,0-5,4-5,21
	c0,0,6-3,6,9"/>
<path fill="none" stroke="#FFE574" stroke-width="2" stroke-linecap="round" stroke-miterlimit="10" d="M17,27v1
	c0,2.762-2.238,5-5,5l0,0c-2.762,0-5-2.238-5-5v-1"/>
<line fill="none" stroke="#FFE574" stroke-width="2" stroke-linecap="round" stroke-miterlimit="10" x1="5" y1="16" x2="19" y2="16"/>
<line fill="none" stroke="#FFE574" stroke-width="2" stroke-linecap="round" stroke-miterlimit="10" x1="5" y1="20" x2="19" y2="20"/>
<line fill="none" stroke="#FFE574" stroke-width="2" stroke-linecap="round" stroke-miterlimit="10" x1="5" y1="24" x2="19" y2="24"/>
<path fill="none" stroke="#FFE574" stroke-width="2" stroke-linecap="round" stroke-miterlimit="10" d="M49,39
	c0,6.075-4.925,10-11,10l0,0c-6.075,0-11-3.925-11-10V12c0-6.075,4.925-11,11-11l0,0c6.075,0,11,4.925,11,11V39z"/>
<path fill="none" stroke="#FFE574" stroke-width="2" stroke-linecap="round" stroke-miterlimit="10" d="M28,7c0,0,5,4,5,21
	c0,0-6-3-6,9"/>
<path fill="none" stroke="#FFE574" stroke-width="2" stroke-linecap="round" stroke-miterlimit="10" d="M48,7c0,0-5,4-5,21
	c0,0,6-3,6,9"/>
<path fill="none" stroke="#FFE574" stroke-width="2" stroke-linecap="round" stroke-miterlimit="10" d="M43,27v1
	c0,2.762-2.238,5-5,5l0,0c-2.762,0-5-2.238-5-5v-1"/>
<line fill="none" stroke="#FFE574" stroke-width="2" stroke-linecap="round" stroke-miterlimit="10" x1="31" y1="16" x2="45" y2="16"/>
<line fill="none" stroke="#FFE574" stroke-width="2" stroke-linecap="round" stroke-miterlimit="10" x1="31" y1="20" x2="45" y2="20"/>
<line fill="none" stroke="#FFE574" stroke-width="2" stroke-linecap="round" stroke-miterlimit="10" x1="31" y1="24" x2="45" y2="24"/>
</svg>
